<mxfile host="65bd71144e" modified="2020-10-24T11:41:38.789Z" agent="5.0 (Windows NT 10.0; Win64; x64) AppleWebKit/537.36 (KHTML, like Gecko) Code/1.50.1 Chrome/83.0.4103.122 Electron/9.2.1 Safari/537.36" etag="ovu0LgcLyejYJfSNnbIO" version="13.6.5">
    <diagram id="xAqzTMsiMj1r9Kvff4Ee" name="Seite-1">
        <mxGraphModel dx="514" dy="738" grid="1" gridSize="10" guides="1" tooltips="1" connect="1" arrows="1" fold="1" page="1" pageScale="1" pageWidth="827" pageHeight="1169" math="0" shadow="1">
            <root>
                <mxCell id="0"/>
                <mxCell id="1" parent="0"/>
                <mxCell id="nrMCtbFsrtQRF_oKq2P7-54" style="edgeStyle=orthogonalEdgeStyle;orthogonalLoop=1;jettySize=auto;html=1;exitX=1;exitY=0.5;exitDx=0;exitDy=0;entryX=0;entryY=0.5;entryDx=0;entryDy=0;" parent="1" source="nrMCtbFsrtQRF_oKq2P7-1" target="nrMCtbFsrtQRF_oKq2P7-52" edge="1">
                    <mxGeometry relative="1" as="geometry"/>
                </mxCell>
                <mxCell id="nrMCtbFsrtQRF_oKq2P7-1" value="Landing Page" style="ellipse;rounded=1;" parent="1" vertex="1">
                    <mxGeometry x="40" y="355" width="80" height="30" as="geometry"/>
                </mxCell>
                <mxCell id="nrMCtbFsrtQRF_oKq2P7-2" value="About Me" style="rounded=1;" parent="1" vertex="1">
                    <mxGeometry x="150" y="170" width="80" height="30" as="geometry"/>
                </mxCell>
                <mxCell id="nrMCtbFsrtQRF_oKq2P7-3" value="" style="edgeStyle=elbowEdgeStyle;elbow=horizontal;" parent="1" source="nrMCtbFsrtQRF_oKq2P7-1" target="nrMCtbFsrtQRF_oKq2P7-2" edge="1">
                    <mxGeometry relative="1" as="geometry"/>
                </mxCell>
                <mxCell id="nrMCtbFsrtQRF_oKq2P7-21" value="" style="edgeStyle=orthogonalEdgeStyle;orthogonalLoop=1;jettySize=auto;html=1;" parent="1" source="nrMCtbFsrtQRF_oKq2P7-4" target="nrMCtbFsrtQRF_oKq2P7-20" edge="1">
                    <mxGeometry relative="1" as="geometry"/>
                </mxCell>
                <mxCell id="nrMCtbFsrtQRF_oKq2P7-38" value="" style="edgeStyle=orthogonalEdgeStyle;orthogonalLoop=1;jettySize=auto;html=1;" parent="1" source="nrMCtbFsrtQRF_oKq2P7-4" target="nrMCtbFsrtQRF_oKq2P7-37" edge="1">
                    <mxGeometry relative="1" as="geometry"/>
                </mxCell>
                <mxCell id="nrMCtbFsrtQRF_oKq2P7-43" value="" style="edgeStyle=orthogonalEdgeStyle;orthogonalLoop=1;jettySize=auto;html=1;" parent="1" source="nrMCtbFsrtQRF_oKq2P7-4" target="nrMCtbFsrtQRF_oKq2P7-42" edge="1">
                    <mxGeometry relative="1" as="geometry">
                        <Array as="points">
                            <mxPoint x="470" y="425"/>
                        </Array>
                    </mxGeometry>
                </mxCell>
                <mxCell id="nrMCtbFsrtQRF_oKq2P7-4" value="Questions?" style="rounded=1;" parent="1" vertex="1">
                    <mxGeometry x="430" y="355" width="80" height="30" as="geometry"/>
                </mxCell>
                <mxCell id="nrMCtbFsrtQRF_oKq2P7-5" value="" style="edgeStyle=elbowEdgeStyle;elbow=horizontal;" parent="1" source="nrMCtbFsrtQRF_oKq2P7-1" target="nrMCtbFsrtQRF_oKq2P7-4" edge="1">
                    <mxGeometry relative="1" as="geometry"/>
                </mxCell>
                <mxCell id="nrMCtbFsrtQRF_oKq2P7-36" style="edgeStyle=orthogonalEdgeStyle;orthogonalLoop=1;jettySize=auto;html=1;exitX=1;exitY=0.5;exitDx=0;exitDy=0;entryX=0;entryY=0.5;entryDx=0;entryDy=0;" parent="1" source="nrMCtbFsrtQRF_oKq2P7-6" target="nrMCtbFsrtQRF_oKq2P7-20" edge="1">
                    <mxGeometry relative="1" as="geometry"/>
                </mxCell>
                <mxCell id="nrMCtbFsrtQRF_oKq2P7-6" value="About me" style="rounded=1;" parent="1" vertex="1">
                    <mxGeometry x="300" y="50" width="80" height="30" as="geometry"/>
                </mxCell>
                <mxCell id="nrMCtbFsrtQRF_oKq2P7-7" value="" style="edgeStyle=elbowEdgeStyle;elbow=horizontal;" parent="1" source="nrMCtbFsrtQRF_oKq2P7-2" target="nrMCtbFsrtQRF_oKq2P7-6" edge="1">
                    <mxGeometry relative="1" as="geometry"/>
                </mxCell>
                <mxCell id="nrMCtbFsrtQRF_oKq2P7-33" style="edgeStyle=orthogonalEdgeStyle;orthogonalLoop=1;jettySize=auto;html=1;exitX=1;exitY=0.5;exitDx=0;exitDy=0;entryX=0;entryY=0.5;entryDx=0;entryDy=0;" parent="1" source="nrMCtbFsrtQRF_oKq2P7-8" target="nrMCtbFsrtQRF_oKq2P7-20" edge="1">
                    <mxGeometry relative="1" as="geometry"/>
                </mxCell>
                <mxCell id="nrMCtbFsrtQRF_oKq2P7-8" value="My personality" style="rounded=1;" parent="1" vertex="1">
                    <mxGeometry x="300" y="150" width="80" height="30" as="geometry"/>
                </mxCell>
                <mxCell id="nrMCtbFsrtQRF_oKq2P7-9" value="" style="edgeStyle=elbowEdgeStyle;elbow=horizontal;" parent="1" source="nrMCtbFsrtQRF_oKq2P7-2" target="nrMCtbFsrtQRF_oKq2P7-8" edge="1">
                    <mxGeometry relative="1" as="geometry"/>
                </mxCell>
                <mxCell id="nrMCtbFsrtQRF_oKq2P7-30" style="edgeStyle=orthogonalEdgeStyle;orthogonalLoop=1;jettySize=auto;html=1;exitX=1;exitY=0.5;exitDx=0;exitDy=0;entryX=0;entryY=0.5;entryDx=0;entryDy=0;" parent="1" source="nrMCtbFsrtQRF_oKq2P7-10" target="nrMCtbFsrtQRF_oKq2P7-20" edge="1">
                    <mxGeometry relative="1" as="geometry">
                        <Array as="points">
                            <mxPoint x="475" y="325"/>
                            <mxPoint x="475" y="215"/>
                        </Array>
                    </mxGeometry>
                </mxCell>
                <mxCell id="nrMCtbFsrtQRF_oKq2P7-49" style="edgeStyle=orthogonalEdgeStyle;orthogonalLoop=1;jettySize=auto;html=1;exitX=1;exitY=0.5;exitDx=0;exitDy=0;entryX=0.5;entryY=0;entryDx=0;entryDy=0;" parent="1" source="nrMCtbFsrtQRF_oKq2P7-10" target="nrMCtbFsrtQRF_oKq2P7-4" edge="1">
                    <mxGeometry relative="1" as="geometry"/>
                </mxCell>
                <mxCell id="nrMCtbFsrtQRF_oKq2P7-10" value="My philosophy" style="rounded=1;" parent="1" vertex="1">
                    <mxGeometry x="300" y="310" width="80" height="30" as="geometry"/>
                </mxCell>
                <mxCell id="nrMCtbFsrtQRF_oKq2P7-11" value="" style="edgeStyle=elbowEdgeStyle;elbow=horizontal;" parent="1" source="nrMCtbFsrtQRF_oKq2P7-2" target="nrMCtbFsrtQRF_oKq2P7-10" edge="1">
                    <mxGeometry relative="1" as="geometry"/>
                </mxCell>
                <mxCell id="nrMCtbFsrtQRF_oKq2P7-34" style="edgeStyle=orthogonalEdgeStyle;orthogonalLoop=1;jettySize=auto;html=1;exitX=1;exitY=0.5;exitDx=0;exitDy=0;entryX=0;entryY=0.5;entryDx=0;entryDy=0;" parent="1" source="nrMCtbFsrtQRF_oKq2P7-12" target="nrMCtbFsrtQRF_oKq2P7-20" edge="1">
                    <mxGeometry relative="1" as="geometry"/>
                </mxCell>
                <mxCell id="nrMCtbFsrtQRF_oKq2P7-12" value="My Stack" style="rounded=1;" parent="1" vertex="1">
                    <mxGeometry x="300" y="100" width="80" height="30" as="geometry"/>
                </mxCell>
                <mxCell id="nrMCtbFsrtQRF_oKq2P7-13" value="" style="edgeStyle=elbowEdgeStyle;elbow=horizontal;" parent="1" source="nrMCtbFsrtQRF_oKq2P7-2" target="nrMCtbFsrtQRF_oKq2P7-12" edge="1">
                    <mxGeometry relative="1" as="geometry"/>
                </mxCell>
                <mxCell id="nrMCtbFsrtQRF_oKq2P7-28" style="edgeStyle=orthogonalEdgeStyle;orthogonalLoop=1;jettySize=auto;html=1;exitX=1;exitY=0.5;exitDx=0;exitDy=0;entryX=0;entryY=0.5;entryDx=0;entryDy=0;" parent="1" source="nrMCtbFsrtQRF_oKq2P7-14" target="nrMCtbFsrtQRF_oKq2P7-20" edge="1">
                    <mxGeometry relative="1" as="geometry"/>
                </mxCell>
                <mxCell id="nrMCtbFsrtQRF_oKq2P7-14" value="My Skills" style="rounded=1;" parent="1" vertex="1">
                    <mxGeometry x="300" y="200" width="80" height="30" as="geometry"/>
                </mxCell>
                <mxCell id="nrMCtbFsrtQRF_oKq2P7-15" value="" style="edgeStyle=elbowEdgeStyle;elbow=horizontal;" parent="1" source="nrMCtbFsrtQRF_oKq2P7-2" target="nrMCtbFsrtQRF_oKq2P7-14" edge="1">
                    <mxGeometry relative="1" as="geometry"/>
                </mxCell>
                <mxCell id="nrMCtbFsrtQRF_oKq2P7-29" style="edgeStyle=orthogonalEdgeStyle;orthogonalLoop=1;jettySize=auto;html=1;exitX=1;exitY=0.5;exitDx=0;exitDy=0;entryX=0;entryY=0.5;entryDx=0;entryDy=0;" parent="1" source="nrMCtbFsrtQRF_oKq2P7-16" target="nrMCtbFsrtQRF_oKq2P7-20" edge="1">
                    <mxGeometry relative="1" as="geometry"/>
                </mxCell>
                <mxCell id="nrMCtbFsrtQRF_oKq2P7-16" value="My Languages" style="rounded=1;" parent="1" vertex="1">
                    <mxGeometry x="300" y="250" width="80" height="30" as="geometry"/>
                </mxCell>
                <mxCell id="nrMCtbFsrtQRF_oKq2P7-17" value="" style="edgeStyle=elbowEdgeStyle;elbow=horizontal;" parent="1" source="nrMCtbFsrtQRF_oKq2P7-2" target="nrMCtbFsrtQRF_oKq2P7-16" edge="1">
                    <mxGeometry relative="1" as="geometry"/>
                </mxCell>
                <mxCell id="nrMCtbFsrtQRF_oKq2P7-18" value="Rechtliches" style="rounded=1;" parent="1" vertex="1">
                    <mxGeometry x="240" y="430" width="80" height="30" as="geometry"/>
                </mxCell>
                <mxCell id="nrMCtbFsrtQRF_oKq2P7-19" value="" style="edgeStyle=elbowEdgeStyle;elbow=horizontal;" parent="1" source="nrMCtbFsrtQRF_oKq2P7-1" target="nrMCtbFsrtQRF_oKq2P7-18" edge="1">
                    <mxGeometry relative="1" as="geometry"/>
                </mxCell>
                <mxCell id="nrMCtbFsrtQRF_oKq2P7-20" value="Contact me" style="arcSize=30;rounded=1;" parent="1" vertex="1">
                    <mxGeometry x="570" y="200" width="80" height="30" as="geometry"/>
                </mxCell>
                <mxCell id="nrMCtbFsrtQRF_oKq2P7-48" style="edgeStyle=orthogonalEdgeStyle;orthogonalLoop=1;jettySize=auto;html=1;exitX=1;exitY=0.5;exitDx=0;exitDy=0;entryX=0.5;entryY=1;entryDx=0;entryDy=0;" parent="1" source="nrMCtbFsrtQRF_oKq2P7-37" target="nrMCtbFsrtQRF_oKq2P7-20" edge="1">
                    <mxGeometry relative="1" as="geometry"/>
                </mxCell>
                <mxCell id="nrMCtbFsrtQRF_oKq2P7-37" value="LikedIn" style="rounded=1;" parent="1" vertex="1">
                    <mxGeometry x="430" y="470" width="80" height="30" as="geometry"/>
                </mxCell>
                <mxCell id="nrMCtbFsrtQRF_oKq2P7-47" style="edgeStyle=orthogonalEdgeStyle;orthogonalLoop=1;jettySize=auto;html=1;exitX=1;exitY=0.5;exitDx=0;exitDy=0;entryX=0.5;entryY=1;entryDx=0;entryDy=0;" parent="1" source="nrMCtbFsrtQRF_oKq2P7-42" target="nrMCtbFsrtQRF_oKq2P7-20" edge="1">
                    <mxGeometry relative="1" as="geometry"/>
                </mxCell>
                <mxCell id="nrMCtbFsrtQRF_oKq2P7-42" value="Github" style="rounded=1;" parent="1" vertex="1">
                    <mxGeometry x="490" y="410" width="80" height="30" as="geometry"/>
                </mxCell>
                <mxCell id="nrMCtbFsrtQRF_oKq2P7-52" value="UX Survey" style="rounded=1;" parent="1" vertex="1">
                    <mxGeometry x="240" y="540" width="80" height="30" as="geometry"/>
                </mxCell>
            </root>
        </mxGraphModel>
    </diagram>
</mxfile>